<svg width="200" height="200" viewBox="0 0 200 200" fill="none" xmlns="http://www.w3.org/2000/svg">
  <!-- Outer Circle -->
  <circle cx="100" cy="100" r="95" stroke="#1E40AF" stroke-width="8" fill="white"/>
  
  <!-- Inner Circle -->
  <circle cx="100" cy="100" r="80" stroke="#3B82F6" stroke-width="3" fill="none"/>
  
  <!-- Top Text Arc -->
  <path id="topText" d="M 30 100 A 70 70 0 0 1 170 100" fill="none"/>
  <text font-family="Arial, sans-serif" font-size="14" font-weight="bold" fill="#1E40AF" text-anchor="middle">
    <textPath href="#topText" startOffset="50%">SARASWATI SCHOOL</textPath>
  </text>
  
  <!-- Bottom Text Arc -->
  <path id="bottomText" d="M 170 100 A 70 70 0 0 1 30 100" fill="none"/>
  <text font-family="Arial, sans-serif" font-size="12" font-weight="bold" fill="#1E40AF" text-anchor="middle">
    <textPath href="#bottomText" startOffset="50%">GOTHARA (NWH)</textPath>
  </text>
  
  <!-- Left Laurel Wreath -->
  <path d="M 50 80 Q 60 60 70 80 Q 80 100 70 120 Q 60 140 50 120" stroke="#10B981" stroke-width="3" fill="none"/>
  <path d="M 45 85 Q 55 65 65 85 Q 75 105 65 125 Q 55 145 45 125" stroke="#10B981" stroke-width="2" fill="none"/>
  
  <!-- Right Laurel Wreath -->
  <path d="M 150 80 Q 140 60 130 80 Q 120 100 130 120 Q 140 140 150 120" stroke="#F59E0B" stroke-width="3" fill="none"/>
  <path d="M 155 85 Q 145 65 135 85 Q 125 105 135 125 Q 145 145 155 125" stroke="#F59E0B" stroke-width="2" fill="none"/>
  
  <!-- Central S -->
  <text x="100" y="110" font-family="Arial, sans-serif" font-size="48" font-weight="bold" fill="#1E40AF" text-anchor="middle">S</text>
  
  <!-- Open Book -->
  <rect x="85" y="120" width="30" height="20" rx="2" fill="#3B82F6"/>
  <rect x="87" y="122" width="26" height="16" rx="1" fill="white"/>
  <line x1="100" y1="122" x2="100" y2="138" stroke="#1E40AF" stroke-width="1"/>
  <line x1="87" y1="128" x2="113" y2="128" stroke="#1E40AF" stroke-width="0.5"/>
  <line x1="87" y1="132" x2="113" y2="132" stroke="#1E40AF" stroke-width="0.5"/>
</svg>
